<?xml version="1.0" encoding="utf-8" ?>
<svg baseProfile="full" height="900" version="1.1" width="1400" xmlns="http://www.w3.org/2000/svg" xmlns:ev="http://www.w3.org/2001/xml-events" xmlns:xlink="http://www.w3.org/1999/xlink"><defs /><rect fill="white" height="900" width="1400" x="0" y="0" /><rect fill="white" height="90" stroke="black" stroke-width="2" width="420" x="40" y="40" /><text fill="black" font-family="Arial" font-size="22" font-weight="bold" x="60" y="75">P&amp;ID — Reactor Area (T1)</text><text fill="black" font-family="Arial" font-size="16" x="60" y="105">DWG-001</text><rect fill="#f5f5f5" height="100" stroke="black" stroke-width="3" width="240" x="580.0" y="210.0" /><text fill="black" font-family="Arial" font-size="24" font-weight="bold" text-anchor="middle" x="700.0" y="268.0">V-101</text><text fill="black" font-family="Arial" font-size="16" text-anchor="middle" x="700.0" y="292.0">Reactor</text><rect fill="#f5f5f5" height="100" stroke="black" stroke-width="3" width="240" x="160.0" y="330.0" /><text fill="black" font-family="Arial" font-size="24" font-weight="bold" text-anchor="middle" x="280.0" y="388.0">T-102</text><text fill="black" font-family="Arial" font-size="16" text-anchor="middle" x="280.0" y="412.0">Separator</text><line stroke="black" stroke-width="4" x1="700.0" x2="700.0" y1="310.0" y2="500" /><line stroke="black" stroke-width="4" x1="280.0" x2="280.0" y1="430.0" y2="500" /><circle cx="80.0" cy="560.0" fill="white" r="42" stroke="black" stroke-width="3" /><text fill="black" font-family="Arial" font-size="18" font-weight="bold" text-anchor="middle" x="80.0" y="568.0">PT-101</text><text fill="black" font-family="Arial" font-size="12" text-anchor="middle" x="80.0" y="620.0">50 bar</text><line stroke="black" stroke-width="4" x1="80.0" x2="80.0" y1="518.0" y2="500" /><circle cx="390.0" cy="560.0" fill="white" r="42" stroke="black" stroke-width="3" /><text fill="black" font-family="Arial" font-size="18" font-weight="bold" text-anchor="middle" x="390.0" y="568.0">TT-102</text><line stroke="black" stroke-width="4" x1="390.0" x2="390.0" y1="518.0" y2="500" /><circle cx="700.0" cy="560.0" fill="white" r="42" stroke="black" stroke-width="3" /><text fill="black" font-family="Arial" font-size="18" font-weight="bold" text-anchor="middle" x="700.0" y="568.0">FT-103</text><line stroke="black" stroke-width="4" x1="700.0" x2="700.0" y1="518.0" y2="500" /><circle cx="1010.0" cy="560.0" fill="white" r="42" stroke="black" stroke-width="3" /><text fill="black" font-family="Arial" font-size="18" font-weight="bold" text-anchor="middle" x="1010.0" y="568.0">FIC-105</text><line stroke="black" stroke-width="4" x1="1010.0" x2="1010.0" y1="518.0" y2="500" /><circle cx="1320.0" cy="560.0" fill="white" r="42" stroke="black" stroke-width="3" /><text fill="black" font-family="Arial" font-size="18" font-weight="bold" text-anchor="middle" x="1320.0" y="568.0">LCV-106</text><line stroke="black" stroke-width="4" x1="1320.0" x2="1320.0" y1="518.0" y2="500" /><circle cx="80.0" cy="720.0" fill="white" r="42" stroke="black" stroke-width="3" /><text fill="black" font-family="Arial" font-size="18" font-weight="bold" text-anchor="middle" x="80.0" y="728.0">TT-107</text><line stroke="black" stroke-width="4" x1="80.0" x2="80.0" y1="678.0" y2="500" /><circle cx="493.3333333333333" cy="720.0" fill="white" r="42" stroke="black" stroke-width="3" /><text fill="black" font-family="Arial" font-size="18" font-weight="bold" text-anchor="middle" x="493.3333333333333" y="728.0">PT-108</text><line stroke="black" stroke-width="4" x1="493.3333333333333" x2="493.3333333333333" y1="678.0" y2="500" /><circle cx="906.6666666666666" cy="720.0" fill="white" r="42" stroke="black" stroke-width="3" /><text fill="black" font-family="Arial" font-size="18" font-weight="bold" text-anchor="middle" x="906.6666666666666" y="728.0">TIC-111</text><line stroke="black" stroke-width="4" x1="906.6666666666666" x2="906.6666666666666" y1="678.0" y2="500" /><circle cx="1320.0" cy="720.0" fill="white" r="42" stroke="black" stroke-width="3" /><text fill="black" font-family="Arial" font-size="18" font-weight="bold" text-anchor="middle" x="1320.0" y="728.0">AT-114</text><line stroke="black" stroke-width="4" x1="1320.0" x2="1320.0" y1="678.0" y2="500" /></svg>