<?xml version="1.0" encoding="utf-8" ?>
<svg baseProfile="full" height="900" version="1.1" width="1400" xmlns="http://www.w3.org/2000/svg" xmlns:ev="http://www.w3.org/2001/xml-events" xmlns:xlink="http://www.w3.org/1999/xlink"><defs /><rect fill="white" height="900" width="1400" x="0" y="0" /><rect fill="white" height="90" stroke="black" stroke-width="2" width="420" x="40" y="40" /><text fill="black" font-family="Arial" font-size="22" font-weight="bold" x="60" y="75">P&amp;ID — Reactor Area (T0)</text><text fill="black" font-family="Arial" font-size="16" x="60" y="105">DWG-001</text><rect fill="#f5f5f5" height="120" stroke="black" stroke-width="3" width="320" x="540.0" y="220.0" /><text fill="black" font-family="Arial" font-size="24" font-weight="bold" text-anchor="middle" x="700.0" y="288.0">V-101</text><text fill="black" font-family="Arial" font-size="16" text-anchor="middle" x="700.0" y="312.0">Reactor</text><line stroke="black" stroke-width="4" x1="700.0" x2="700.0" y1="340.0" y2="520" /><circle cx="120.0" cy="620.0" fill="white" r="58" stroke="black" stroke-width="3" /><text fill="black" font-family="Arial" font-size="26" font-weight="bold" text-anchor="middle" x="120.0" y="628.0">PT-101</text><text fill="black" font-family="Arial" font-size="14" text-anchor="middle" x="120.0" y="696.0">50 bar</text><line stroke="black" stroke-width="4" x1="120.0" x2="120.0" y1="562.0" y2="520" /><circle cx="410.0" cy="620.0" fill="white" r="58" stroke="black" stroke-width="3" /><text fill="black" font-family="Arial" font-size="26" font-weight="bold" text-anchor="middle" x="410.0" y="628.0">TT-102</text><line stroke="black" stroke-width="4" x1="410.0" x2="410.0" y1="562.0" y2="520" /><circle cx="700.0" cy="620.0" fill="white" r="58" stroke="black" stroke-width="3" /><text fill="black" font-family="Arial" font-size="26" font-weight="bold" text-anchor="middle" x="700.0" y="628.0">LT-104</text><line stroke="black" stroke-width="4" x1="700.0" x2="700.0" y1="562.0" y2="520" /><circle cx="990.0" cy="620.0" fill="white" r="58" stroke="black" stroke-width="3" /><text fill="black" font-family="Arial" font-size="26" font-weight="bold" text-anchor="middle" x="990.0" y="628.0">FIC-105</text><line stroke="black" stroke-width="4" x1="990.0" x2="990.0" y1="562.0" y2="520" /><circle cx="1280.0" cy="620.0" fill="white" r="58" stroke="black" stroke-width="3" /><text fill="black" font-family="Arial" font-size="26" font-weight="bold" text-anchor="middle" x="1280.0" y="628.0">FCV-112</text><line stroke="black" stroke-width="4" x1="1280.0" x2="1280.0" y1="562.0" y2="520" /></svg>